<svg width="3000" height="3000" viewBox="-1.1 -1.1 2.2 2.2">
<circle cx="0" cy="0" r="0.030303030303030304" fill="rgb(63,63,255)" />
<circle cx="0" cy="0" r="0.030303030303030304" stroke="rgb(69,69,255)" stroke-width="0.031303030303030305" fill="none" />
<circle cx="0" cy="0" r="0.06060606060606061" stroke="rgb(75,75,255)" stroke-width="0.031303030303030305" fill="none" />
<circle cx="0" cy="0" r="0.09090909090909091" stroke="rgb(81,81,255)" stroke-width="0.031303030303030305" fill="none" />
<circle cx="0" cy="0" r="0.12121212121212122" stroke="rgb(86,86,255)" stroke-width="0.031303030303030305" fill="none" />
<circle cx="0" cy="0" r="0.15151515151515152" stroke="rgb(92,92,255)" stroke-width="0.031303030303030305" fill="none" />
<circle cx="0" cy="0" r="0.18181818181818182" stroke="rgb(98,98,255)" stroke-width="0.031303030303030305" fill="none" />
<circle cx="0" cy="0" r="0.21212121212121213" stroke="rgb(104,104,255)" stroke-width="0.031303030303030305" fill="none" />
<circle cx="0" cy="0" r="0.24242424242424243" stroke="rgb(110,110,255)" stroke-width="0.031303030303030305" fill="none" />
<circle cx="0" cy="0" r="0.2727272727272727" stroke="rgb(115,115,255)" stroke-width="0.031303030303030305" fill="none" />
<circle cx="0" cy="0" r="0.30303030303030304" stroke="rgb(121,121,255)" stroke-width="0.031303030303030305" fill="none" />
<circle cx="0" cy="0" r="0.3333333333333333" stroke="rgb(127,127,255)" stroke-width="0.031303030303030305" fill="none" />
<circle cx="0" cy="0" r="0.36363636363636365" stroke="rgb(133,133,255)" stroke-width="0.031303030303030305" fill="none" />
<circle cx="0" cy="0" r="0.3939393939393939" stroke="rgb(139,139,255)" stroke-width="0.031303030303030305" fill="none" />
<circle cx="0" cy="0" r="0.42424242424242425" stroke="rgb(144,144,255)" stroke-width="0.031303030303030305" fill="none" />
<circle cx="0" cy="0" r="0.45454545454545453" stroke="rgb(150,150,255)" stroke-width="0.031303030303030305" fill="none" />
<circle cx="0" cy="0" r="0.48484848484848486" stroke="rgb(156,156,255)" stroke-width="0.031303030303030305" fill="none" />
<circle cx="0" cy="0" r="0.5151515151515151" stroke="rgb(162,162,255)" stroke-width="0.031303030303030305" fill="none" />
<circle cx="0" cy="0" r="0.5454545454545454" stroke="rgb(168,168,255)" stroke-width="0.031303030303030305" fill="none" />
<circle cx="0" cy="0" r="0.5757575757575758" stroke="rgb(173,173,255)" stroke-width="0.031303030303030305" fill="none" />
<circle cx="0" cy="0" r="0.6060606060606061" stroke="rgb(179,179,255)" stroke-width="0.031303030303030305" fill="none" />
<circle cx="0" cy="0" r="0.6363636363636364" stroke="rgb(185,185,255)" stroke-width="0.031303030303030305" fill="none" />
<circle cx="0" cy="0" r="0.6666666666666666" stroke="rgb(191,191,255)" stroke-width="0.031303030303030305" fill="none" />
<circle cx="0" cy="0" r="0.696969696969697" stroke="rgb(197,197,255)" stroke-width="0.031303030303030305" fill="none" />
<circle cx="0" cy="0" r="0.7272727272727273" stroke="rgb(202,202,255)" stroke-width="0.031303030303030305" fill="none" />
<circle cx="0" cy="0" r="0.7575757575757576" stroke="rgb(208,208,255)" stroke-width="0.031303030303030305" fill="none" />
<circle cx="0" cy="0" r="0.7878787878787878" stroke="rgb(214,214,255)" stroke-width="0.031303030303030305" fill="none" />
<circle cx="0" cy="0" r="0.8181818181818182" stroke="rgb(220,220,255)" stroke-width="0.031303030303030305" fill="none" />
<circle cx="0" cy="0" r="0.8484848484848485" stroke="rgb(226,226,255)" stroke-width="0.031303030303030305" fill="none" />
<circle cx="0" cy="0" r="0.8787878787878788" stroke="rgb(231,231,255)" stroke-width="0.031303030303030305" fill="none" />
<circle cx="0" cy="0" r="0.9090909090909091" stroke="rgb(237,237,255)" stroke-width="0.031303030303030305" fill="none" />
<circle cx="0" cy="0" r="0.9393939393939394" stroke="rgb(243,243,255)" stroke-width="0.031303030303030305" fill="none" />
<circle cx="0" cy="0" r="0.9696969696969697" stroke="rgb(249,249,255)" stroke-width="0.031303030303030305" fill="none" />
<line x1="-0.8248616632725291" y1="-0.5295845532112842" x2="0.08085245933185274" y2="-0.6983177743222236" style="stroke:rgb(0,0,0);stroke-width:0.0005" />
<line x1="-0.9015419991934396" y1="-0.38319608138122274" x2="-0.309830766584568" y2="-0.3318640029908267" style="stroke:rgb(0,0,0);stroke-width:0.0005" />
<line x1="-0.5667312606511126" y1="-0.7833506181184133" x2="0.004825069696984614" y2="-0.004304503132018701" style="stroke:rgb(0,0,0);stroke-width:0.0005" />
<line x1="-0.12280867736194126" y1="-0.951043153226579" x2="-0.3721076219173397" y2="-0.6295464167544278" style="stroke:rgb(0,0,0);stroke-width:0.0005" />
<line x1="-0.3721076219173397" y1="-0.6295464167544278" x2="0.05391861255385123" y2="-0.5716706979262186" style="stroke:rgb(0,0,0);stroke-width:0.0005" />
<line x1="-0.3721076219173397" y1="-0.6295464167544278" x2="-0.2541430027726183" y2="-0.9256692592195227" style="stroke:rgb(0,0,0);stroke-width:0.0005" />
<line x1="-0.3721076219173397" y1="-0.6295464167544278" x2="-0.8133568063413084" y2="-0.032153430636913456" style="stroke:rgb(0,0,0);stroke-width:0.0005" />
<line x1="-0.3721076219173397" y1="-0.6295464167544278" x2="-0.5847138551946421" y2="-0.7718600359085557" style="stroke:rgb(0,0,0);stroke-width:0.0005" />
<line x1="-0.3721076219173397" y1="-0.6295464167544278" x2="-0.309830766584568" y2="-0.3318640029908267" style="stroke:rgb(0,0,0);stroke-width:0.0005" />
<line x1="-0.3721076219173397" y1="-0.6295464167544278" x2="-0.16118747935688132" y2="-0.8913866082168505" style="stroke:rgb(0,0,0);stroke-width:0.0005" />
<line x1="-0.3721076219173397" y1="-0.6295464167544278" x2="-0.92307859731723" y2="-0.33071693245290534" style="stroke:rgb(0,0,0);stroke-width:0.0005" />
<line x1="-0.3721076219173397" y1="-0.6295464167544278" x2="0.004825069696984614" y2="-0.004304503132018701" style="stroke:rgb(0,0,0);stroke-width:0.0005" />
<line x1="0.8881308323915507" y1="-0.27620304795478906" x2="0.05391861255385123" y2="-0.5716706979262186" style="stroke:rgb(0,0,0);stroke-width:0.0005" />
<line x1="0.8881308323915507" y1="-0.27620304795478906" x2="0.004825069696984614" y2="-0.004304503132018701" style="stroke:rgb(0,0,0);stroke-width:0.0005" />
<line x1="0.7825154725014434" y1="-0.34427211182540113" x2="0.08085245933185274" y2="-0.6983177743222236" style="stroke:rgb(0,0,0);stroke-width:0.0005" />
<line x1="0.7825154725014434" y1="-0.34427211182540113" x2="0.05391861255385123" y2="-0.5716706979262186" style="stroke:rgb(0,0,0);stroke-width:0.0005" />
<line x1="0.7825154725014434" y1="-0.34427211182540113" x2="-0.309830766584568" y2="-0.3318640029908267" style="stroke:rgb(0,0,0);stroke-width:0.0005" />
<line x1="0.7825154725014434" y1="-0.34427211182540113" x2="0.07596847446069031" y2="-0.7473769016081813" style="stroke:rgb(0,0,0);stroke-width:0.0005" />
<line x1="0.7825154725014434" y1="-0.34427211182540113" x2="0.004825069696984614" y2="-0.004304503132018701" style="stroke:rgb(0,0,0);stroke-width:0.0005" />
<line x1="-0.729038478726568" y1="0.6532440976715913" x2="-0.8133568063413084" y2="-0.032153430636913456" style="stroke:rgb(0,0,0);stroke-width:0.0005" />
<line x1="0.08085245933185274" y1="-0.6983177743222236" x2="-0.37699286715959673" y2="-0.7972051194983506" style="stroke:rgb(0,0,0);stroke-width:0.0005" />
<line x1="0.08085245933185274" y1="-0.6983177743222236" x2="-0.3431885063393504" y2="-0.8699509859363743" style="stroke:rgb(0,0,0);stroke-width:0.0005" />
<line x1="0.08085245933185274" y1="-0.6983177743222236" x2="0.05391861255385123" y2="-0.5716706979262186" style="stroke:rgb(0,0,0);stroke-width:0.0005" />
<line x1="0.08085245933185274" y1="-0.6983177743222236" x2="0.36600569159543744" y2="-0.793425358485873" style="stroke:rgb(0,0,0);stroke-width:0.0005" />
<line x1="0.08085245933185274" y1="-0.6983177743222236" x2="-0.2660877407627412" y2="-0.9109647270220252" style="stroke:rgb(0,0,0);stroke-width:0.0005" />
<line x1="0.08085245933185274" y1="-0.6983177743222236" x2="-0.7822429566057659" y2="-0.4627934544512232" style="stroke:rgb(0,0,0);stroke-width:0.0005" />
<line x1="0.08085245933185274" y1="-0.6983177743222236" x2="0.07596847446069031" y2="-0.7473769016081813" style="stroke:rgb(0,0,0);stroke-width:0.0005" />
<line x1="0.08085245933185274" y1="-0.6983177743222236" x2="0.004825069696984614" y2="-0.004304503132018701" style="stroke:rgb(0,0,0);stroke-width:0.0005" />
<line x1="-0.37699286715959673" y1="-0.7972051194983506" x2="0.05391861255385123" y2="-0.5716706979262186" style="stroke:rgb(0,0,0);stroke-width:0.0005" />
<line x1="-0.37699286715959673" y1="-0.7972051194983506" x2="-0.309830766584568" y2="-0.3318640029908267" style="stroke:rgb(0,0,0);stroke-width:0.0005" />
<line x1="-0.37699286715959673" y1="-0.7972051194983506" x2="0.07596847446069031" y2="-0.7473769016081813" style="stroke:rgb(0,0,0);stroke-width:0.0005" />
<line x1="-0.3431885063393504" y1="-0.8699509859363743" x2="0.004825069696984614" y2="-0.004304503132018701" style="stroke:rgb(0,0,0);stroke-width:0.0005" />
<line x1="0.05391861255385123" y1="-0.5716706979262186" x2="0.36600569159543744" y2="-0.793425358485873" style="stroke:rgb(0,0,0);stroke-width:0.0005" />
<line x1="0.05391861255385123" y1="-0.5716706979262186" x2="0.2870034188859428" y2="-0.927299230568245" style="stroke:rgb(0,0,0);stroke-width:0.0005" />
<line x1="0.05391861255385123" y1="-0.5716706979262186" x2="-0.309830766584568" y2="-0.3318640029908267" style="stroke:rgb(0,0,0);stroke-width:0.0005" />
<line x1="0.05391861255385123" y1="-0.5716706979262186" x2="0.07596847446069031" y2="-0.7473769016081813" style="stroke:rgb(0,0,0);stroke-width:0.0005" />
<line x1="0.05391861255385123" y1="-0.5716706979262186" x2="-0.16118747935688132" y2="-0.8913866082168505" style="stroke:rgb(0,0,0);stroke-width:0.0005" />
<line x1="0.05391861255385123" y1="-0.5716706979262186" x2="0.2518247200316364" y2="-0.8665193706076113" style="stroke:rgb(0,0,0);stroke-width:0.0005" />
<line x1="0.05391861255385123" y1="-0.5716706979262186" x2="0.4540429126541104" y2="-0.8147638202908374" style="stroke:rgb(0,0,0);stroke-width:0.0005" />
<line x1="0.05391861255385123" y1="-0.5716706979262186" x2="0.004825069696984614" y2="-0.004304503132018701" style="stroke:rgb(0,0,0);stroke-width:0.0005" />
<line x1="0.05391861255385123" y1="-0.5716706979262186" x2="0.09483882025515597" y2="-0.9066025373050547" style="stroke:rgb(0,0,0);stroke-width:0.0005" />
<line x1="-0.3246482372170935" y1="0.9122019654128553" x2="0.004825069696984614" y2="-0.004304503132018701" style="stroke:rgb(0,0,0);stroke-width:0.0005" />
<line x1="-0.8103654639124771" y1="-0.5316645939406371" x2="-0.309830766584568" y2="-0.3318640029908267" style="stroke:rgb(0,0,0);stroke-width:0.0005" />
<line x1="-0.17783130832779057" y1="-0.9596860315762639" x2="0.004825069696984614" y2="-0.004304503132018701" style="stroke:rgb(0,0,0);stroke-width:0.0005" />
<line x1="0.9354022420697317" y1="0.16018672052662208" x2="0.004825069696984614" y2="-0.004304503132018701" style="stroke:rgb(0,0,0);stroke-width:0.0005" />
<line x1="0.9354022420697317" y1="0.16018672052662208" x2="0.9306006093032151" y2="0.008266768704039107" style="stroke:rgb(0,0,0);stroke-width:0.0005" />
<line x1="-0.8962406451519238" y1="0.2891963388502065" x2="-0.309830766584568" y2="-0.3318640029908267" style="stroke:rgb(0,0,0);stroke-width:0.0005" />
<line x1="-0.8962406451519238" y1="0.2891963388502065" x2="0.004825069696984614" y2="-0.004304503132018701" style="stroke:rgb(0,0,0);stroke-width:0.0005" />
<line x1="0.36600569159543744" y1="-0.793425358485873" x2="0.002868689780318165" y2="-0.9097801346510714" style="stroke:rgb(0,0,0);stroke-width:0.0005" />
<line x1="0.36600569159543744" y1="-0.793425358485873" x2="-0.309830766584568" y2="-0.3318640029908267" style="stroke:rgb(0,0,0);stroke-width:0.0005" />
<line x1="-0.8917628209149003" y1="-0.3122295782092769" x2="-0.9224084965375787" y2="-0.19139847045382125" style="stroke:rgb(0,0,0);stroke-width:0.0005" />
<line x1="-0.8917628209149003" y1="-0.3122295782092769" x2="0.004825069696984614" y2="-0.004304503132018701" style="stroke:rgb(0,0,0);stroke-width:0.0005" />
<line x1="0.7332873944940381" y1="0.630361650199942" x2="0.004825069696984614" y2="-0.004304503132018701" style="stroke:rgb(0,0,0);stroke-width:0.0005" />
<line x1="-0.29361076335536174" y1="-0.9346231794404949" x2="-0.309830766584568" y2="-0.3318640029908267" style="stroke:rgb(0,0,0);stroke-width:0.0005" />
<line x1="-0.9525789127767252" y1="-0.20740403595189844" x2="-0.309830766584568" y2="-0.3318640029908267" style="stroke:rgb(0,0,0);stroke-width:0.0005" />
<line x1="-0.10615234948185671" y1="0.9698751937460736" x2="0.004825069696984614" y2="-0.004304503132018701" style="stroke:rgb(0,0,0);stroke-width:0.0005" />
<line x1="-0.7814894536326875" y1="0.5933271354152608" x2="0.004825069696984614" y2="-0.004304503132018701" style="stroke:rgb(0,0,0);stroke-width:0.0005" />
<line x1="-0.6425799335967112" y1="0.7356969969797357" x2="0.004825069696984614" y2="-0.004304503132018701" style="stroke:rgb(0,0,0);stroke-width:0.0005" />
<line x1="-0.8133568063413084" y1="-0.032153430636913456" x2="-0.7822429566057659" y2="-0.4627934544512232" style="stroke:rgb(0,0,0);stroke-width:0.0005" />
<line x1="-0.8133568063413084" y1="-0.032153430636913456" x2="-0.9053956048832303" y2="0.23212058784019074" style="stroke:rgb(0,0,0);stroke-width:0.0005" />
<line x1="-0.8133568063413084" y1="-0.032153430636913456" x2="-0.9348801299597335" y2="0.00705188190908529" style="stroke:rgb(0,0,0);stroke-width:0.0005" />
<line x1="-0.8133568063413084" y1="-0.032153430636913456" x2="0.004825069696984614" y2="-0.004304503132018701" style="stroke:rgb(0,0,0);stroke-width:0.0005" />
<line x1="-0.9744631323288209" y1="0.05540377540008171" x2="-0.309830766584568" y2="-0.3318640029908267" style="stroke:rgb(0,0,0);stroke-width:0.0005" />
<line x1="0.9464590580174727" y1="-0.22564040417549147" x2="0.004825069696984614" y2="-0.004304503132018701" style="stroke:rgb(0,0,0);stroke-width:0.0005" />
<line x1="-0.8646714636588635" y1="0.42387314789555725" x2="-0.309830766584568" y2="-0.3318640029908267" style="stroke:rgb(0,0,0);stroke-width:0.0005" />
<line x1="-0.5618168699181568" y1="0.8000121209110194" x2="0.004825069696984614" y2="-0.004304503132018701" style="stroke:rgb(0,0,0);stroke-width:0.0005" />
<line x1="-0.2660877407627412" y1="-0.9109647270220252" x2="0.004825069696984614" y2="-0.004304503132018701" style="stroke:rgb(0,0,0);stroke-width:0.0005" />
<line x1="-0.9224084965375787" y1="-0.19139847045382125" x2="0.004825069696984614" y2="-0.004304503132018701" style="stroke:rgb(0,0,0);stroke-width:0.0005" />
<line x1="0.9511173537999653" y1="-0.2245750125029872" x2="-0.309830766584568" y2="-0.3318640029908267" style="stroke:rgb(0,0,0);stroke-width:0.0005" />
<line x1="0.002868689780318165" y1="-0.9097801346510714" x2="0.07596847446069031" y2="-0.7473769016081813" style="stroke:rgb(0,0,0);stroke-width:0.0005" />
<line x1="0.002868689780318165" y1="-0.9097801346510714" x2="0.004825069696984614" y2="-0.004304503132018701" style="stroke:rgb(0,0,0);stroke-width:0.0005" />
<line x1="-0.7822429566057659" y1="-0.4627934544512232" x2="0.004825069696984614" y2="-0.004304503132018701" style="stroke:rgb(0,0,0);stroke-width:0.0005" />
<line x1="-0.819956563457618" y1="0.5220005324146547" x2="0.004825069696984614" y2="-0.004304503132018701" style="stroke:rgb(0,0,0);stroke-width:0.0005" />
<line x1="-0.309830766584568" y1="-0.3318640029908267" x2="0.07596847446069031" y2="-0.7473769016081813" style="stroke:rgb(0,0,0);stroke-width:0.0005" />
<line x1="-0.309830766584568" y1="-0.3318640029908267" x2="-0.16118747935688132" y2="-0.8913866082168505" style="stroke:rgb(0,0,0);stroke-width:0.0005" />
<line x1="-0.309830766584568" y1="-0.3318640029908267" x2="0.2518247200316364" y2="-0.8665193706076113" style="stroke:rgb(0,0,0);stroke-width:0.0005" />
<line x1="-0.309830766584568" y1="-0.3318640029908267" x2="-0.1722144389079717" y2="-0.916944180527231" style="stroke:rgb(0,0,0);stroke-width:0.0005" />
<line x1="-0.309830766584568" y1="-0.3318640029908267" x2="0.004825069696984614" y2="-0.004304503132018701" style="stroke:rgb(0,0,0);stroke-width:0.0005" />
<line x1="0.8544618949744384" y1="0.46659075845992215" x2="0.004825069696984614" y2="-0.004304503132018701" style="stroke:rgb(0,0,0);stroke-width:0.0005" />
<line x1="0.07596847446069031" y1="-0.7473769016081813" x2="0.004825069696984614" y2="-0.004304503132018701" style="stroke:rgb(0,0,0);stroke-width:0.0005" />
<line x1="0.07596847446069031" y1="-0.7473769016081813" x2="0.09483882025515597" y2="-0.9066025373050547" style="stroke:rgb(0,0,0);stroke-width:0.0005" />
<line x1="-0.71171155377163" y1="0.666123422527449" x2="0.004825069696984614" y2="-0.004304503132018701" style="stroke:rgb(0,0,0);stroke-width:0.0005" />
<line x1="0.2518247200316364" y1="-0.8665193706076113" x2="0.004825069696984614" y2="-0.004304503132018701" style="stroke:rgb(0,0,0);stroke-width:0.0005" />
<line x1="-0.9053956048832303" y1="0.23212058784019074" x2="-0.9348801299597335" y2="0.00705188190908529" style="stroke:rgb(0,0,0);stroke-width:0.0005" />
<line x1="-0.1722144389079717" y1="-0.916944180527231" x2="0.004825069696984614" y2="-0.004304503132018701" style="stroke:rgb(0,0,0);stroke-width:0.0005" />
<line x1="0.4540429126541104" y1="-0.8147638202908374" x2="0.004825069696984614" y2="-0.004304503132018701" style="stroke:rgb(0,0,0);stroke-width:0.0005" />
<line x1="0.004825069696984614" y1="-0.004304503132018701" x2="0.09483882025515597" y2="-0.9066025373050547" style="stroke:rgb(0,0,0);stroke-width:0.0005" />
<line x1="0.004825069696984614" y1="-0.004304503132018701" x2="0.9306006093032151" y2="0.008266768704039107" style="stroke:rgb(0,0,0);stroke-width:0.0005" />
<circle cx="-0.8248616632725291" cy="-0.5295845532112842" r="0.008833333333333334" stroke="red" stroke-width="0.001" fill="black" />
<circle cx="-0.9015419991934396" cy="-0.38319608138122274" r="0.008833333333333334" stroke="red" stroke-width="0.001" fill="black" />
<circle cx="-0.5667312606511126" cy="-0.7833506181184133" r="0.008833333333333334" stroke="red" stroke-width="0.001" fill="black" />
<circle cx="-0.12280867736194126" cy="-0.951043153226579" r="0.008833333333333334" stroke="red" stroke-width="0.001" fill="black" />
<circle cx="-0.3721076219173397" cy="-0.6295464167544278" r="0.008833333333333334" stroke="red" stroke-width="0.001" fill="black" />
<circle cx="0.8881308323915507" cy="-0.27620304795478906" r="0.008833333333333334" stroke="red" stroke-width="0.001" fill="black" />
<circle cx="0.7825154725014434" cy="-0.34427211182540113" r="0.008833333333333334" stroke="red" stroke-width="0.001" fill="black" />
<circle cx="-0.729038478726568" cy="0.6532440976715913" r="0.008833333333333334" stroke="red" stroke-width="0.001" fill="black" />
<circle cx="0.08085245933185274" cy="-0.6983177743222236" r="0.008833333333333334" stroke="red" stroke-width="0.001" fill="black" />
<circle cx="-0.37699286715959673" cy="-0.7972051194983506" r="0.008833333333333334" stroke="red" stroke-width="0.001" fill="black" />
<circle cx="-0.3431885063393504" cy="-0.8699509859363743" r="0.008833333333333334" stroke="red" stroke-width="0.001" fill="black" />
<circle cx="0.05391861255385123" cy="-0.5716706979262186" r="0.008833333333333334" stroke="red" stroke-width="0.001" fill="black" />
<circle cx="-0.3246482372170935" cy="0.9122019654128553" r="0.008833333333333334" stroke="red" stroke-width="0.001" fill="black" />
<circle cx="-0.8103654639124771" cy="-0.5316645939406371" r="0.008833333333333334" stroke="red" stroke-width="0.001" fill="black" />
<circle cx="-0.17783130832779057" cy="-0.9596860315762639" r="0.008833333333333334" stroke="red" stroke-width="0.001" fill="black" />
<circle cx="0.9354022420697317" cy="0.16018672052662208" r="0.008833333333333334" stroke="red" stroke-width="0.001" fill="black" />
<circle cx="-0.8962406451519238" cy="0.2891963388502065" r="0.008833333333333334" stroke="red" stroke-width="0.001" fill="black" />
<circle cx="0.36600569159543744" cy="-0.793425358485873" r="0.008833333333333334" stroke="red" stroke-width="0.001" fill="black" />
<circle cx="-0.8917628209149003" cy="-0.3122295782092769" r="0.008833333333333334" stroke="red" stroke-width="0.001" fill="black" />
<circle cx="0.7332873944940381" cy="0.630361650199942" r="0.008833333333333334" stroke="red" stroke-width="0.001" fill="black" />
<circle cx="-0.29361076335536174" cy="-0.9346231794404949" r="0.008833333333333334" stroke="red" stroke-width="0.001" fill="black" />
<circle cx="-0.9525789127767252" cy="-0.20740403595189844" r="0.008833333333333334" stroke="red" stroke-width="0.001" fill="black" />
<circle cx="-0.10615234948185671" cy="0.9698751937460736" r="0.008833333333333334" stroke="red" stroke-width="0.001" fill="black" />
<circle cx="-0.7814894536326875" cy="0.5933271354152608" r="0.008833333333333334" stroke="red" stroke-width="0.001" fill="black" />
<circle cx="-0.6425799335967112" cy="0.7356969969797357" r="0.008833333333333334" stroke="red" stroke-width="0.001" fill="black" />
<circle cx="-0.2541430027726183" cy="-0.9256692592195227" r="0.008833333333333334" stroke="red" stroke-width="0.001" fill="black" />
<circle cx="-0.8133568063413084" cy="-0.032153430636913456" r="0.008833333333333334" stroke="red" stroke-width="0.001" fill="black" />
<circle cx="-0.5847138551946421" cy="-0.7718600359085557" r="0.008833333333333334" stroke="red" stroke-width="0.001" fill="black" />
<circle cx="-0.9744631323288209" cy="0.05540377540008171" r="0.008833333333333334" stroke="red" stroke-width="0.001" fill="black" />
<circle cx="0.9464590580174727" cy="-0.22564040417549147" r="0.008833333333333334" stroke="red" stroke-width="0.001" fill="black" />
<circle cx="0.2870034188859428" cy="-0.927299230568245" r="0.008833333333333334" stroke="red" stroke-width="0.001" fill="black" />
<circle cx="-0.8646714636588635" cy="0.42387314789555725" r="0.008833333333333334" stroke="red" stroke-width="0.001" fill="black" />
<circle cx="-0.5618168699181568" cy="0.8000121209110194" r="0.008833333333333334" stroke="red" stroke-width="0.001" fill="black" />
<circle cx="-0.2660877407627412" cy="-0.9109647270220252" r="0.008833333333333334" stroke="red" stroke-width="0.001" fill="black" />
<circle cx="-0.9224084965375787" cy="-0.19139847045382125" r="0.008833333333333334" stroke="red" stroke-width="0.001" fill="black" />
<circle cx="0.9511173537999653" cy="-0.2245750125029872" r="0.008833333333333334" stroke="red" stroke-width="0.001" fill="black" />
<circle cx="0.002868689780318165" cy="-0.9097801346510714" r="0.008833333333333334" stroke="red" stroke-width="0.001" fill="black" />
<circle cx="-0.7822429566057659" cy="-0.4627934544512232" r="0.008833333333333334" stroke="red" stroke-width="0.001" fill="black" />
<circle cx="-0.819956563457618" cy="0.5220005324146547" r="0.008833333333333334" stroke="red" stroke-width="0.001" fill="black" />
<circle cx="-0.309830766584568" cy="-0.3318640029908267" r="0.008833333333333334" stroke="red" stroke-width="0.001" fill="black" />
<circle cx="0.8544618949744384" cy="0.46659075845992215" r="0.008833333333333334" stroke="red" stroke-width="0.001" fill="black" />
<circle cx="0.07596847446069031" cy="-0.7473769016081813" r="0.008833333333333334" stroke="red" stroke-width="0.001" fill="black" />
<circle cx="-0.71171155377163" cy="0.666123422527449" r="0.008833333333333334" stroke="red" stroke-width="0.001" fill="black" />
<circle cx="-0.16118747935688132" cy="-0.8913866082168505" r="0.008833333333333334" stroke="red" stroke-width="0.001" fill="black" />
<circle cx="0.2518247200316364" cy="-0.8665193706076113" r="0.008833333333333334" stroke="red" stroke-width="0.001" fill="black" />
<circle cx="-0.92307859731723" cy="-0.33071693245290534" r="0.008833333333333334" stroke="red" stroke-width="0.001" fill="black" />
<circle cx="-0.9053956048832303" cy="0.23212058784019074" r="0.008833333333333334" stroke="red" stroke-width="0.001" fill="black" />
<circle cx="-0.9348801299597335" cy="0.00705188190908529" r="0.008833333333333334" stroke="red" stroke-width="0.001" fill="black" />
<circle cx="-0.1722144389079717" cy="-0.916944180527231" r="0.008833333333333334" stroke="red" stroke-width="0.001" fill="black" />
<circle cx="0.4540429126541104" cy="-0.8147638202908374" r="0.008833333333333334" stroke="red" stroke-width="0.001" fill="black" />
<circle cx="0.004825069696984614" cy="-0.004304503132018701" r="0.008833333333333334" stroke="red" stroke-width="0.001" fill="black" />
<circle cx="0.09483882025515597" cy="-0.9066025373050547" r="0.008833333333333334" stroke="red" stroke-width="0.001" fill="black" />
<circle cx="0.9306006093032151" cy="0.008266768704039107" r="0.008833333333333334" stroke="red" stroke-width="0.001" fill="black" />
<text x="-0.8160283299391957" y="-0.5384178865446175" fill = "black" stroke="white" stroke-width="0.0002" font-size="0.008">afl
</text>
<text x="-0.8927086658601062" y="-0.3920294147145561" fill = "black" stroke="white" stroke-width="0.0002" font-size="0.008">aju
</text>
<text x="-0.5578979273177792" y="-0.7921839514517467" fill = "black" stroke="white" stroke-width="0.0002" font-size="0.008">aru
</text>
<text x="-0.11397534402860793" y="-0.9598764865599123" fill = "black" stroke="white" stroke-width="0.0002" font-size="0.008">atm
</text>
<text x="-0.36327428858400634" y="-0.6383797500877612" fill = "black" stroke="white" stroke-width="0.0002" font-size="0.008">bel
</text>
<text x="0.896964165724884" y="-0.2850363812881224" fill = "black" stroke="white" stroke-width="0.0002" font-size="0.008">bps
</text>
<text x="0.7913488058347767" y="-0.3531054451587345" fill = "black" stroke="white" stroke-width="0.0002" font-size="0.008">bsb
</text>
<text x="-0.7202051453932347" y="0.644410764338258" fill = "black" stroke="white" stroke-width="0.0002" font-size="0.008">bvb
</text>
<text x="0.08968579266518607" y="-0.707151107655557" fill = "black" stroke="white" stroke-width="0.0002" font-size="0.008">cgb
</text>
<text x="-0.3681595338262634" y="-0.806038452831684" fill = "black" stroke="white" stroke-width="0.0002" font-size="0.008">cgh
</text>
<text x="-0.334355173006017" y="-0.8787843192697077" fill = "black" stroke="white" stroke-width="0.0002" font-size="0.008">cgr
</text>
<text x="0.06275194588718457" y="-0.580504031259552" fill = "black" stroke="white" stroke-width="0.0002" font-size="0.008">cnf
</text>
<text x="-0.31581490388376016" y="0.9033686320795219" fill = "black" stroke="white" stroke-width="0.0002" font-size="0.008">cwb
</text>
<text x="-0.8015321305791437" y="-0.5404979272739705" fill = "black" stroke="white" stroke-width="0.0002" font-size="0.008">fen
</text>
<text x="-0.16899797499445723" y="-0.9685193649095972" fill = "black" stroke="white" stroke-width="0.0002" font-size="0.008">fll
</text>
<text x="0.944235575403065" y="0.15135338719328875" fill = "black" stroke="white" stroke-width="0.0002" font-size="0.008">fln
</text>
<text x="-0.8874073118185904" y="0.28036300551687315" fill = "black" stroke="white" stroke-width="0.0002" font-size="0.008">for
</text>
<text x="0.3748390249287708" y="-0.8022586918192064" fill = "black" stroke="white" stroke-width="0.0002" font-size="0.008">gru
</text>
<text x="-0.882929487581567" y="-0.32106291154261024" fill = "black" stroke="white" stroke-width="0.0002" font-size="0.008">gyn
</text>
<text x="0.7421207278273715" y="0.6215283168666086" fill = "black" stroke="white" stroke-width="0.0002" font-size="0.008">igu
</text>
<text x="-0.2847774300220284" y="-0.9434565127738282" fill = "black" stroke="white" stroke-width="0.0002" font-size="0.008">jdo
</text>
<text x="-0.9437455794433919" y="-0.21623736928523177" fill = "black" stroke="white" stroke-width="0.0002" font-size="0.008">jpa
</text>
<text x="-0.09731901614852338" y="0.9610418604127402" fill = "black" stroke="white" stroke-width="0.0002" font-size="0.008">jtc
</text>
<text x="-0.7726561202993542" y="0.5844938020819275" fill = "black" stroke="white" stroke-width="0.0002" font-size="0.008">ldb
</text>
<text x="-0.6337466002633778" y="0.7268636636464023" fill = "black" stroke="white" stroke-width="0.0002" font-size="0.008">lis
</text>
<text x="-0.24530966943928498" y="-0.9345025925528561" fill = "black" stroke="white" stroke-width="0.0002" font-size="0.008">mab
</text>
<text x="-0.804523473007975" y="-0.04098676397024679" fill = "black" stroke="white" stroke-width="0.0002" font-size="0.008">mao
</text>
<text x="-0.5758805218613088" y="-0.780693369241889" fill = "black" stroke="white" stroke-width="0.0002" font-size="0.008">mcp
</text>
<text x="-0.9656297989954875" y="0.04657044206674838" fill = "black" stroke="white" stroke-width="0.0002" font-size="0.008">mcz
</text>
<text x="0.955292391350806" y="-0.2344737375088248" fill = "black" stroke="white" stroke-width="0.0002" font-size="0.008">mgf
</text>
<text x="0.29583675221927613" y="-0.9361325639015784" fill = "black" stroke="white" stroke-width="0.0002" font-size="0.008">moc
</text>
<text x="-0.8558381303255301" y="0.4150398145622239" fill = "black" stroke="white" stroke-width="0.0002" font-size="0.008">nat
</text>
<text x="-0.5529835365848235" y="0.791178787577686" fill = "black" stroke="white" stroke-width="0.0002" font-size="0.008">nvt
</text>
<text x="-0.25725440742940786" y="-0.9197980603553586" fill = "black" stroke="white" stroke-width="0.0002" font-size="0.008">ops
</text>
<text x="-0.9135751632042454" y="-0.20023180378715458" fill = "black" stroke="white" stroke-width="0.0002" font-size="0.008">pmw
</text>
<text x="0.9599506871332987" y="-0.23340834583632053" fill = "black" stroke="white" stroke-width="0.0002" font-size="0.008">pnz
</text>
<text x="0.011702023113651499" y="-0.9186134679844048" fill = "black" stroke="white" stroke-width="0.0002" font-size="0.008">poa
</text>
<text x="-0.7734096232724326" y="-0.4716267877845566" fill = "black" stroke="white" stroke-width="0.0002" font-size="0.008">pvh
</text>
<text x="-0.8111232301242847" y="0.5131671990813214" fill = "black" stroke="white" stroke-width="0.0002" font-size="0.008">rao
</text>
<text x="-0.3009974332512346" y="-0.34069733632416005" fill = "black" stroke="white" stroke-width="0.0002" font-size="0.008">rec
</text>
<text x="0.8632952283077717" y="0.4577574251265888" fill = "black" stroke="white" stroke-width="0.0002" font-size="0.008">roo
</text>
<text x="0.08480180779402365" y="-0.7562102349415146" fill = "black" stroke="white" stroke-width="0.0002" font-size="0.008">sdu
</text>
<text x="-0.7028782204382966" y="0.6572900891941157" fill = "black" stroke="white" stroke-width="0.0002" font-size="0.008">sjp
</text>
<text x="-0.152354146023548" y="-0.9002199415501838" fill = "black" stroke="white" stroke-width="0.0002" font-size="0.008">slz
</text>
<text x="0.2606580533649698" y="-0.8753527039409447" fill = "black" stroke="white" stroke-width="0.0002" font-size="0.008">ssa
</text>
<text x="-0.9142452639838966" y="-0.3395502657862387" fill = "black" stroke="white" stroke-width="0.0002" font-size="0.008">stm
</text>
<text x="-0.896562271549897" y="0.2232872545068574" fill = "black" stroke="white" stroke-width="0.0002" font-size="0.008">tbt
</text>
<text x="-0.9260467966264001" y="-0.0017814514242480437" fill = "black" stroke="white" stroke-width="0.0002" font-size="0.008">tff
</text>
<text x="-0.16338110557463836" y="-0.9257775138605644" fill = "black" stroke="white" stroke-width="0.0002" font-size="0.008">the
</text>
<text x="0.46287624598744376" y="-0.8235971536241707" fill = "black" stroke="white" stroke-width="0.0002" font-size="0.008">udi
</text>
<text x="0.013658403030317947" y="-0.013137836465352035" fill = "black" stroke="white" stroke-width="0.0002" font-size="0.008">vcp
</text>
<text x="0.1036721535884893" y="-0.915435870638388" fill = "black" stroke="white" stroke-width="0.0002" font-size="0.008">vix
</text>
<text x="0.9394339426365484" y="-0.0005665646292942264" fill = "black" stroke="white" stroke-width="0.0002" font-size="0.008">xap
</text>
</svg>